<?xml version="1.0" standalone="no"?>
<!DOCTYPE svg PUBLIC "-//W3C//DTD SVG 20010904//EN"
 "http://www.w3.org/TR/2001/REC-SVG-20010904/DTD/svg10.dtd">
<svg version="1.0" xmlns="http://www.w3.org/2000/svg"
 width="414.000000pt" height="81.000000pt" viewBox="0 0 414.000000 81.000000"
 preserveAspectRatio="xMidYMid meet">
<metadata>
Created by potrace 1.11, written by Peter Selinger 2001-2013
</metadata>
<g transform="translate(0.000000,81.000000) scale(0.100000,-0.100000)"
fill="#000000" stroke="none">
<path d="M595 670 c-17 -7 -16 -9 10 -11 48 -3 59 -2 82 5 21 7 21 4 21 -72
l0 -78 -77 -1 c-57 0 -67 1 -41 7 l35 7 -32 2 c-17 0 -33 7 -36 14 -2 6 -6 0
-9 -15 l-5 -28 111 0 c61 0 134 -3 161 -6 48 -6 51 -5 67 24 25 42 79 64 186
76 78 8 92 12 92 28 0 10 -9 27 -20 38 -20 20 -32 20 -273 19 -138 0 -261 -5
-272 -9z"/>
<path d="M1170 561 c0 -28 3 -31 30 -31 17 0 39 -9 50 -20 18 -18 20 -33 20
-134 0 -112 -1 -115 -26 -135 -15 -12 -37 -21 -50 -21 -20 0 -24 -5 -24 -30
l0 -30 180 0 180 0 0 31 0 32 -65 -7 c-36 -4 -65 -5 -65 -2 0 2 16 20 35 39
l35 35 0 96 c0 69 -5 106 -16 127 -23 45 -89 71 -196 77 l-88 5 0 -32z"/>
<path d="M1105 518 c-32 -18 -35 -28 -35 -145 0 -109 1 -112 26 -132 15 -12
35 -21 45 -21 18 0 19 10 19 155 0 141 -2 155 -17 155 -10 0 -27 -6 -38 -12z"/>
<path d="M693 473 c-141 -4 -143 -4 -139 -26 2 -19 10 -22 47 -23 27 -1 33 0
14 3 -50 8 -56 26 -7 21 23 -2 42 -1 42 2 0 3 14 6 31 6 18 1 26 -1 19 -6 -7
-4 -8 -10 -3 -13 6 -4 11 -35 12 -69 2 -67 -14 -72 -22 -8 -3 24 -4 20 -2 -10
l2 -45 -66 -2 c-57 0 -60 0 -21 6 l45 6 1 45 1 45 -4 -42 c-4 -38 -7 -43 -28
-43 -21 0 -24 5 -27 42 -2 30 -8 44 -20 46 -13 3 -17 -7 -20 -57 l-3 -61 120
0 c66 0 137 -3 158 -6 l37 -7 0 102 c0 75 -3 100 -12 99 -7 -1 -77 -4 -155 -5z"/>
<path d="M2740 444 c-41 -9 -66 -10 -68 -4 -2 6 -41 10 -88 10 l-84 0 0 -145
0 -145 85 0 85 0 0 108 c0 93 3 111 18 125 22 20 102 23 120 5 8 -8 12 -50 12
-125 l0 -113 85 0 85 0 0 119 c0 139 -9 158 -80 172 -61 11 -93 10 -170 -7z"/>
<path d="M3353 450 c-23 -5 -51 -14 -63 -20 -16 -9 -20 -8 -20 5 0 12 -15 15
-85 15 l-85 0 0 -145 0 -145 85 0 85 0 0 86 c0 81 10 120 34 136 6 4 41 10 79
14 66 6 67 7 67 35 0 32 -14 35 -97 19z"/>
<path d="M3630 454 c-103 -20 -130 -49 -130 -140 0 -75 14 -110 51 -130 43
-22 167 -37 249 -30 162 13 190 36 190 155 -1 87 -9 103 -66 128 -39 16 -236
28 -294 17z m180 -63 c17 -32 13 -157 -6 -175 -21 -22 -97 -21 -115 1 -17 20
-16 157 1 179 8 9 31 14 61 14 38 0 51 -4 59 -19z"/>
<path d="M1610 330 c0 -141 6 -151 95 -170 60 -12 134 -7 197 16 33 11 38 11
38 -1 0 -12 17 -15 80 -15 l80 0 0 145 0 145 -85 0 -85 0 0 -103 c0 -126 -7
-140 -74 -141 -68 -1 -76 13 -76 141 l0 103 -85 0 -85 0 0 -120z"/>
<path d="M2210 305 l0 -145 90 0 90 0 0 145 0 145 -90 0 -90 0 0 -145z"/>
<path d="M687 263 c-81 -2 -146 -7 -143 -12 3 -4 6 -44 8 -89 l3 -82 286 0
c264 0 287 1 302 18 34 37 22 49 -58 55 -112 10 -162 25 -190 59 -14 16 -25
36 -25 44 0 8 -8 13 -17 12 -10 -1 -85 -4 -166 -5z"/>
<path d="M1154 55 c-3 -8 -3 -19 1 -25 4 -7 441 -10 1406 -10 1274 0 1400 1
1406 16 3 9 0 20 -8 25 -8 5 -618 9 -1407 9 -1208 0 -1393 -2 -1398 -15z"/>
</g>
</svg>
